<svg id="icons" enable-background="new 0 0 64 64" height="512" viewBox="0 0 64 64" width="512" xmlns="http://www.w3.org/2000/svg"><path d="m22 20c4.96 0 9 4.03 9 9 0 4.96-4.04 9-9 9-4.97 0-9-4.04-9-9 0-4.97 4.03-9 9-9zm4 9c0-2.21-1.8-4-4-4-2.21 0-4 1.79-4 4s1.79 4 4 4c2.2 0 4-1.79 4-4z" fill="#ed5565"/><path d="m22 25c2.2 0 4 1.79 4 4s-1.8 4-4 4c-2.21 0-4-1.79-4-4s1.79-4 4-4z" fill="#ffce54"/><path d="m43 52c0 .55-.45 1-1 1h-40c-.55 0-1-.45-1-1v-40c0-.55.45-1 1-1h40c.55 0 1 .45 1 1v15 2 6 2zm-12-23c0-4.97-4.04-9-9-9-4.97 0-9 4.03-9 9 0 4.96 4.03 9 9 9 4.96 0 9-4.04 9-9z" fill="#ffce54"/><path d="m43 12c11.04 0 20 8.95 20 20 0 11.04-8.96 20-20 20v-16c2.21 0 4-1.79 4-4s-1.79-4-4-4z" fill="#545c66"/><path d="m43 28c2.21 0 4 1.79 4 4s-1.79 4-4 4z" fill="#ed5565"/><g fill="#656d78"><path d="m54.313 44.314c-.256 0-.512-.098-.707-.293-.391-.391-.391-1.023 0-1.414 2.833-2.833 4.393-6.6 4.393-10.607s-1.56-7.773-4.393-10.605c-.391-.391-.391-1.023 0-1.414s1.023-.391 1.414 0c3.211 3.209 4.979 7.479 4.979 12.02 0 4.542-1.768 8.811-4.979 12.021-.196.195-.452.292-.707.292z"/><path d="m51.484 41.486c-.256 0-.512-.098-.707-.293-.391-.391-.391-1.023 0-1.414 4.288-4.289 4.288-11.268 0-15.557-.391-.391-.391-1.023 0-1.414s1.023-.391 1.414 0c5.068 5.068 5.068 13.315 0 18.385-.195.196-.451.293-.707.293z"/><path d="m48.656 38.657c-.256 0-.512-.098-.707-.293-.391-.391-.391-1.023 0-1.414 2.729-2.729 2.729-7.171 0-9.899-.391-.391-.391-1.023 0-1.414s1.023-.391 1.414 0c3.509 3.508 3.509 9.218 0 12.728-.195.195-.451.292-.707.292z"/></g><path d="m34.004 42.999h-24.004c-.553 0-1-.447-1-1s.447-1 1-1h24.004c.553 0 1 .447 1 1s-.447 1-1 1z" fill="#edab37"/><path d="m27 45.999h-9.996c-.553 0-1-.447-1-1s.447-1 1-1h9.996c.553 0 1 .447 1 1s-.447 1-1 1z" fill="#edab37"/></svg>